<svg xmlns="http://www.w3.org/2000/svg" xmlns:xlink="http://www.w3.org/1999/xlink" id="processonSvg1000" viewBox="20.98333740234375 14.25 925.5 935.5999755859375" width="925.5" height="935.5999755859375"><defs id="ProcessOnDefs1001"><marker id="ProcessOnMarker1073" markerUnits="userSpaceOnUse" orient="auto" markerWidth="16.23606797749979" markerHeight="10.550836550532098" viewBox="-1.0 -1.3763819204711736 16.23606797749979 10.550836550532098" refX="-1.0" refY="3.8990363547948754"><path id="ProcessOnPath1074" d="M12.0 3.8990363547948754L0.0 7.798072709589751V0.0Z" stroke="#323232" stroke-width="2.0" fill="#323232" transform="matrix(1.0,0.0,0.0,1.0,0.0,0.0)"/></marker><marker id="ProcessOnMarker1077" markerUnits="userSpaceOnUse" orient="auto" markerWidth="16.23606797749979" markerHeight="10.550836550532098" viewBox="-1.0 -1.3763819204711736 16.23606797749979 10.550836550532098" refX="-1.0" refY="3.8990363547948754"><path id="ProcessOnPath1078" d="M12.0 3.8990363547948754L0.0 7.798072709589751V0.0Z" stroke="#323232" stroke-width="2.0" fill="#323232" transform="matrix(1.0,0.0,0.0,1.0,0.0,0.0)"/></marker><marker id="ProcessOnMarker1097" markerUnits="userSpaceOnUse" orient="auto" markerWidth="16.23606797749979" markerHeight="10.550836550532098" viewBox="-1.0 -1.3763819204711736 16.23606797749979 10.550836550532098" refX="-1.0" refY="3.8990363547948754"><path id="ProcessOnPath1098" d="M12.0 3.8990363547948754L0.0 7.798072709589751V0.0Z" stroke="#323232" stroke-width="2.0" fill="#323232" transform="matrix(1.0,0.0,0.0,1.0,0.0,0.0)"/></marker><marker id="ProcessOnMarker1129" markerUnits="userSpaceOnUse" orient="auto" markerWidth="16.23606797749979" markerHeight="10.550836550532098" viewBox="-1.0 -1.3763819204711736 16.23606797749979 10.550836550532098" refX="-1.0" refY="3.8990363547948754"><path id="ProcessOnPath1130" d="M12.0 3.8990363547948754L0.0 7.798072709589751V0.0Z" stroke="#323232" stroke-width="2.0" fill="#323232" transform="matrix(1.0,0.0,0.0,1.0,0.0,0.0)"/></marker><marker id="ProcessOnMarker1133" markerUnits="userSpaceOnUse" orient="auto" markerWidth="16.23606797749979" markerHeight="10.550836550532098" viewBox="-1.0 -1.3763819204711736 16.23606797749979 10.550836550532098" refX="-1.0" refY="3.8990363547948754"><path id="ProcessOnPath1134" d="M12.0 3.8990363547948754L0.0 7.798072709589751V0.0Z" stroke="#323232" stroke-width="2.0" fill="#323232" transform="matrix(1.0,0.0,0.0,1.0,0.0,0.0)"/></marker><marker id="ProcessOnMarker1141" markerUnits="userSpaceOnUse" orient="auto" markerWidth="16.23606797749979" markerHeight="10.550836550532098" viewBox="-1.0 -1.3763819204711736 16.23606797749979 10.550836550532098" refX="-1.0" refY="3.8990363547948754"><path id="ProcessOnPath1142" d="M12.0 3.8990363547948754L0.0 7.798072709589751V0.0Z" stroke="#323232" stroke-width="2.0" fill="#323232" transform="matrix(1.0,0.0,0.0,1.0,0.0,0.0)"/></marker><marker id="ProcessOnMarker1145" markerUnits="userSpaceOnUse" orient="auto" markerWidth="16.23606797749979" markerHeight="10.550836550532098" viewBox="-1.0 -1.3763819204711736 16.23606797749979 10.550836550532098" refX="-1.0" refY="3.8990363547948754"><path id="ProcessOnPath1146" d="M12.0 3.8990363547948754L0.0 7.798072709589751V0.0Z" stroke="#323232" stroke-width="2.0" fill="#323232" transform="matrix(1.0,0.0,0.0,1.0,0.0,0.0)"/></marker><marker id="ProcessOnMarker1149" markerUnits="userSpaceOnUse" orient="auto" markerWidth="16.23606797749979" markerHeight="10.550836550532098" viewBox="-1.0 -1.3763819204711736 16.23606797749979 10.550836550532098" refX="-1.0" refY="3.8990363547948754"><path id="ProcessOnPath1150" d="M12.0 3.8990363547948754L0.0 7.798072709589751V0.0Z" stroke="#323232" stroke-width="2.0" fill="#323232" transform="matrix(1.0,0.0,0.0,1.0,0.0,0.0)"/></marker><marker id="ProcessOnMarker1153" markerUnits="userSpaceOnUse" orient="auto" markerWidth="16.23606797749979" markerHeight="10.550836550532098" viewBox="-1.0 -1.3763819204711736 16.23606797749979 10.550836550532098" refX="-1.0" refY="3.8990363547948754"><path id="ProcessOnPath1154" d="M12.0 3.8990363547948754L0.0 7.798072709589751V0.0Z" stroke="#323232" stroke-width="2.0" fill="#323232" transform="matrix(1.0,0.0,0.0,1.0,0.0,0.0)"/></marker><marker id="ProcessOnMarker1157" markerUnits="userSpaceOnUse" orient="auto" markerWidth="16.23606797749979" markerHeight="10.550836550532098" viewBox="-1.0 -1.3763819204711736 16.23606797749979 10.550836550532098" refX="-1.0" refY="3.8990363547948754"><path id="ProcessOnPath1158" d="M12.0 3.8990363547948754L0.0 7.798072709589751V0.0Z" stroke="#323232" stroke-width="2.0" fill="#323232" transform="matrix(1.0,0.0,0.0,1.0,0.0,0.0)"/></marker><marker id="ProcessOnMarker1161" markerUnits="userSpaceOnUse" orient="auto" markerWidth="16.23606797749979" markerHeight="10.550836550532098" viewBox="-1.0 -1.3763819204711736 16.23606797749979 10.550836550532098" refX="-1.0" refY="3.8990363547948754"><path id="ProcessOnPath1162" d="M12.0 3.8990363547948754L0.0 7.798072709589751V0.0Z" stroke="#323232" stroke-width="2.0" fill="#323232" transform="matrix(1.0,0.0,0.0,1.0,0.0,0.0)"/></marker><marker id="ProcessOnMarker1165" markerUnits="userSpaceOnUse" orient="auto" markerWidth="16.23606797749979" markerHeight="10.550836550532098" viewBox="-1.0 -1.3763819204711736 16.23606797749979 10.550836550532098" refX="-1.0" refY="3.8990363547948754"><path id="ProcessOnPath1166" d="M12.0 3.8990363547948754L0.0 7.798072709589751V0.0Z" stroke="#323232" stroke-width="2.0" fill="#323232" transform="matrix(1.0,0.0,0.0,1.0,0.0,0.0)"/></marker><marker id="ProcessOnMarker1169" markerUnits="userSpaceOnUse" orient="auto" markerWidth="16.23606797749979" markerHeight="10.550836550532098" viewBox="-1.0 -1.3763819204711736 16.23606797749979 10.550836550532098" refX="-1.0" refY="3.8990363547948754"><path id="ProcessOnPath1170" d="M12.0 3.8990363547948754L0.0 7.798072709589751V0.0Z" stroke="#323232" stroke-width="2.0" fill="#323232" transform="matrix(1.0,0.0,0.0,1.0,0.0,0.0)"/></marker><marker id="ProcessOnMarker1173" markerUnits="userSpaceOnUse" orient="auto" markerWidth="16.23606797749979" markerHeight="10.550836550532098" viewBox="-1.0 -1.3763819204711736 16.23606797749979 10.550836550532098" refX="-1.0" refY="3.8990363547948754"><path id="ProcessOnPath1174" d="M12.0 3.8990363547948754L0.0 7.798072709589751V0.0Z" stroke="#323232" stroke-width="2.0" fill="#323232" transform="matrix(1.0,0.0,0.0,1.0,0.0,0.0)"/></marker><marker id="ProcessOnMarker1177" markerUnits="userSpaceOnUse" orient="auto" markerWidth="16.23606797749979" markerHeight="10.550836550532098" viewBox="-1.0 -1.3763819204711736 16.23606797749979 10.550836550532098" refX="-1.0" refY="3.8990363547948754"><path id="ProcessOnPath1178" d="M12.0 3.8990363547948754L0.0 7.798072709589751V0.0Z" stroke="#323232" stroke-width="2.0" fill="#323232" transform="matrix(1.0,0.0,0.0,1.0,0.0,0.0)"/></marker><marker id="ProcessOnMarker1181" markerUnits="userSpaceOnUse" orient="auto" markerWidth="16.23606797749979" markerHeight="10.550836550532098" viewBox="-1.0 -1.3763819204711736 16.23606797749979 10.550836550532098" refX="-1.0" refY="3.8990363547948754"><path id="ProcessOnPath1182" d="M12.0 3.8990363547948754L0.0 7.798072709589751V0.0Z" stroke="#323232" stroke-width="2.0" fill="#323232" transform="matrix(1.0,0.0,0.0,1.0,0.0,0.0)"/></marker><marker id="ProcessOnMarker1185" markerUnits="userSpaceOnUse" orient="auto" markerWidth="16.23606797749979" markerHeight="10.550836550532098" viewBox="-1.0 -1.3763819204711736 16.23606797749979 10.550836550532098" refX="-1.0" refY="3.8990363547948754"><path id="ProcessOnPath1186" d="M12.0 3.8990363547948754L0.0 7.798072709589751V0.0Z" stroke="#323232" stroke-width="2.0" fill="#323232" transform="matrix(1.0,0.0,0.0,1.0,0.0,0.0)"/></marker><marker id="ProcessOnMarker1189" markerUnits="userSpaceOnUse" orient="auto" markerWidth="16.23606797749979" markerHeight="10.550836550532098" viewBox="-1.0 -1.3763819204711736 16.23606797749979 10.550836550532098" refX="-1.0" refY="3.8990363547948754"><path id="ProcessOnPath1190" d="M12.0 3.8990363547948754L0.0 7.798072709589751V0.0Z" stroke="#323232" stroke-width="2.0" fill="#323232" transform="matrix(1.0,0.0,0.0,1.0,0.0,0.0)"/></marker><marker id="ProcessOnMarker1193" markerUnits="userSpaceOnUse" orient="auto" markerWidth="16.23606797749979" markerHeight="10.550836550532098" viewBox="-1.0 -1.3763819204711736 16.23606797749979 10.550836550532098" refX="-1.0" refY="3.8990363547948754"><path id="ProcessOnPath1194" d="M12.0 3.8990363547948754L0.0 7.798072709589751V0.0Z" stroke="#323232" stroke-width="2.0" fill="#323232" transform="matrix(1.0,0.0,0.0,1.0,0.0,0.0)"/></marker><marker id="ProcessOnMarker1197" markerUnits="userSpaceOnUse" orient="auto" markerWidth="16.23606797749979" markerHeight="10.550836550532098" viewBox="-1.0 -1.3763819204711736 16.23606797749979 10.550836550532098" refX="-1.0" refY="3.8990363547948754"><path id="ProcessOnPath1198" d="M12.0 3.8990363547948754L0.0 7.798072709589751V0.0Z" stroke="#323232" stroke-width="2.0" fill="#323232" transform="matrix(1.0,0.0,0.0,1.0,0.0,0.0)"/></marker><marker id="ProcessOnMarker1201" markerUnits="userSpaceOnUse" orient="auto" markerWidth="16.23606797749979" markerHeight="10.550836550532098" viewBox="-1.0 -1.3763819204711736 16.23606797749979 10.550836550532098" refX="-1.0" refY="3.8990363547948754"><path id="ProcessOnPath1202" d="M12.0 3.8990363547948754L0.0 7.798072709589751V0.0Z" stroke="#323232" stroke-width="2.0" fill="#323232" transform="matrix(1.0,0.0,0.0,1.0,0.0,0.0)"/></marker><marker id="ProcessOnMarker1205" markerUnits="userSpaceOnUse" orient="auto" markerWidth="16.23606797749979" markerHeight="10.550836550532098" viewBox="-1.0 -1.3763819204711736 16.23606797749979 10.550836550532098" refX="-1.0" refY="3.8990363547948754"><path id="ProcessOnPath1206" d="M12.0 3.8990363547948754L0.0 7.798072709589751V0.0Z" stroke="#323232" stroke-width="2.0" fill="#323232" transform="matrix(1.0,0.0,0.0,1.0,0.0,0.0)"/></marker><marker id="ProcessOnMarker1209" markerUnits="userSpaceOnUse" orient="auto" markerWidth="16.23606797749979" markerHeight="10.550836550532098" viewBox="-1.0 -1.3763819204711736 16.23606797749979 10.550836550532098" refX="-1.0" refY="3.8990363547948754"><path id="ProcessOnPath1210" d="M12.0 3.8990363547948754L0.0 7.798072709589751V0.0Z" stroke="#323232" stroke-width="2.0" fill="#323232" transform="matrix(1.0,0.0,0.0,1.0,0.0,0.0)"/></marker><marker id="ProcessOnMarker1213" markerUnits="userSpaceOnUse" orient="auto" markerWidth="16.23606797749979" markerHeight="10.550836550532098" viewBox="-1.0 -1.3763819204711736 16.23606797749979 10.550836550532098" refX="-1.0" refY="3.8990363547948754"><path id="ProcessOnPath1214" d="M12.0 3.8990363547948754L0.0 7.798072709589751V0.0Z" stroke="#323232" stroke-width="2.0" fill="#323232" transform="matrix(1.0,0.0,0.0,1.0,0.0,0.0)"/></marker><marker id="ProcessOnMarker1217" markerUnits="userSpaceOnUse" orient="auto" markerWidth="16.23606797749979" markerHeight="10.550836550532098" viewBox="-1.0 -1.3763819204711736 16.23606797749979 10.550836550532098" refX="-1.0" refY="3.8990363547948754"><path id="ProcessOnPath1218" d="M12.0 3.8990363547948754L0.0 7.798072709589751V0.0Z" stroke="#323232" stroke-width="2.0" fill="#323232" transform="matrix(1.0,0.0,0.0,1.0,0.0,0.0)"/></marker><marker id="ProcessOnMarker1221" markerUnits="userSpaceOnUse" orient="auto" markerWidth="16.23606797749979" markerHeight="10.550836550532098" viewBox="-1.0 -1.3763819204711736 16.23606797749979 10.550836550532098" refX="-1.0" refY="3.8990363547948754"><path id="ProcessOnPath1222" d="M12.0 3.8990363547948754L0.0 7.798072709589751V0.0Z" stroke="#323232" stroke-width="2.0" fill="#323232" transform="matrix(1.0,0.0,0.0,1.0,0.0,0.0)"/></marker><marker id="ProcessOnMarker1235" markerUnits="userSpaceOnUse" orient="auto" markerWidth="16.23606797749979" markerHeight="10.550836550532098" viewBox="-1.0 -1.3763819204711736 16.23606797749979 10.550836550532098" refX="-1.0" refY="3.8990363547948754"><path id="ProcessOnPath1236" d="M12.0 3.8990363547948754L0.0 7.798072709589751V0.0Z" stroke="#323232" stroke-width="2.0" fill="#323232" transform="matrix(1.0,0.0,0.0,1.0,0.0,0.0)"/></marker><marker id="ProcessOnMarker1239" markerUnits="userSpaceOnUse" orient="auto" markerWidth="16.23606797749979" markerHeight="10.550836550532098" viewBox="-1.0 -1.3763819204711736 16.23606797749979 10.550836550532098" refX="-1.0" refY="3.8990363547948754"><path id="ProcessOnPath1240" d="M12.0 3.8990363547948754L0.0 7.798072709589751V0.0Z" stroke="#323232" stroke-width="2.0" fill="#323232" transform="matrix(1.0,0.0,0.0,1.0,0.0,0.0)"/></marker><marker id="ProcessOnMarker1243" markerUnits="userSpaceOnUse" orient="auto" markerWidth="16.23606797749979" markerHeight="10.550836550532098" viewBox="-1.0 -1.3763819204711736 16.23606797749979 10.550836550532098" refX="-1.0" refY="3.8990363547948754"><path id="ProcessOnPath1244" d="M12.0 3.8990363547948754L0.0 7.798072709589751V0.0Z" stroke="#323232" stroke-width="2.0" fill="#323232" transform="matrix(1.0,0.0,0.0,1.0,0.0,0.0)"/></marker><marker id="ProcessOnMarker1247" markerUnits="userSpaceOnUse" orient="auto" markerWidth="16.23606797749979" markerHeight="10.550836550532098" viewBox="-1.0 -1.3763819204711736 16.23606797749979 10.550836550532098" refX="-1.0" refY="3.8990363547948754"><path id="ProcessOnPath1248" d="M12.0 3.8990363547948754L0.0 7.798072709589751V0.0Z" stroke="#323232" stroke-width="2.0" fill="#323232" transform="matrix(1.0,0.0,0.0,1.0,0.0,0.0)"/></marker><marker id="ProcessOnMarker1251" markerUnits="userSpaceOnUse" orient="auto" markerWidth="16.23606797749979" markerHeight="10.550836550532098" viewBox="-1.0 -1.3763819204711736 16.23606797749979 10.550836550532098" refX="-1.0" refY="3.8990363547948754"><path id="ProcessOnPath1252" d="M12.0 3.8990363547948754L0.0 7.798072709589751V0.0Z" stroke="#323232" stroke-width="2.0" fill="#323232" transform="matrix(1.0,0.0,0.0,1.0,0.0,0.0)"/></marker><marker id="ProcessOnMarker1255" markerUnits="userSpaceOnUse" orient="auto" markerWidth="16.23606797749979" markerHeight="10.550836550532098" viewBox="-1.0 -1.3763819204711736 16.23606797749979 10.550836550532098" refX="-1.0" refY="3.8990363547948754"><path id="ProcessOnPath1256" d="M12.0 3.8990363547948754L0.0 7.798072709589751V0.0Z" stroke="#323232" stroke-width="2.0" fill="#323232" transform="matrix(1.0,0.0,0.0,1.0,0.0,0.0)"/></marker></defs><g id="ProcessOnG1002"><path id="ProcessOnPath1003" d="M20.98333740234375 14.25H946.4833374023438V949.8499755859375H20.98333740234375V14.25Z" fill="none"/><g id="ProcessOnG1004"><g id="ProcessOnG1005" transform="matrix(1.0,0.0,0.0,1.0,331.48333740234375,34.25)" opacity="1.0"><path id="ProcessOnPath1006" d="M23.0 0.0L200.0 0.0C230.66666666666666 0.0 230.66666666666666 69.0 200.0 69.0L23.0 69.0C-7.666666666666667 69.0 -7.666666666666667 0.0 23.0 0.0Z" stroke="#323232" stroke-width="2.0" stroke-dasharray="none" opacity="1.0" fill="#ffffff"/><g id="ProcessOnG1007" transform="matrix(1.0,0.0,0.0,1.0,10.0,26.375)"><text id="ProcessOnText1008" fill="#000000" font-weight="normal" font-style="normal" text-decoration="blink" font-family="微软雅黑" text-anchor="middle" font-size="13" x="101.5" y="13.325">findPrimeSpeed 'int(int)'</text></g></g><g id="ProcessOnG1009" transform="matrix(1.0,0.0,0.0,1.0,84.48333740234375,152.25)" opacity="1.0"><path id="ProcessOnPath1010" d="M16.666666666666668 0.0L83.33333333333333 0.0C105.55555555555556 0.0 105.55555555555556 50.0 83.33333333333333 50.0L16.666666666666668 50.0C-5.555555555555556 50.0 -5.555555555555556 0.0 16.666666666666668 0.0Z" stroke="#323232" stroke-width="2.0" stroke-dasharray="none" opacity="1.0" fill="#ffffff"/><g id="ProcessOnG1011" transform="matrix(1.0,0.0,0.0,1.0,10.0,16.875)"><text id="ProcessOnText1012" fill="#000000" font-weight="normal" font-style="normal" text-decoration="blink" font-family="微软雅黑" text-anchor="middle" font-size="13" x="40.0" y="13.325">limit 'int'</text></g></g><g id="ProcessOnG1013" transform="matrix(1.0,0.0,0.0,1.0,357.48333740234375,150.25)" opacity="1.0"><path id="ProcessOnPath1014" d="M18.0 0.0L153.0 0.0C177.0 0.0 177.0 54.0 153.0 54.0L18.0 54.0C-6.0 54.0 -6.0 0.0 18.0 0.0Z" stroke="#323232" stroke-width="2.0" stroke-dasharray="none" opacity="1.0" fill="#ffffff"/><g id="ProcessOnG1015" transform="matrix(1.0,0.0,0.0,1.0,10.0,18.875)"><text id="ProcessOnText1016" fill="#000000" font-weight="normal" font-style="normal" text-decoration="blink" font-family="微软雅黑" text-anchor="middle" font-size="13" x="75.5" y="13.325">CompoundStmt</text></g></g><g id="ProcessOnG1017" transform="matrix(1.0,0.0,0.0,1.0,77.48333740234375,261.25)" opacity="1.0"><path id="ProcessOnPath1018" d="M16.666666666666668 0.0L83.33333333333333 0.0C105.55555555555556 0.0 105.55555555555556 50.0 83.33333333333333 50.0L16.666666666666668 50.0C-5.555555555555556 50.0 -5.555555555555556 0.0 16.666666666666668 0.0Z" stroke="#323232" stroke-width="2.0" stroke-dasharray="none" opacity="1.0" fill="#ffffff"/><g id="ProcessOnG1019" transform="matrix(1.0,0.0,0.0,1.0,10.0,16.875)"><text id="ProcessOnText1020" fill="#000000" font-weight="normal" font-style="normal" text-decoration="blink" font-family="微软雅黑" text-anchor="middle" font-size="13" x="40.0" y="13.325">DeclStmt</text></g></g><g id="ProcessOnG1021" transform="matrix(1.0,0.0,0.0,1.0,252.48333740234375,257.25)" opacity="1.0"><path id="ProcessOnPath1022" d="M16.666666666666668 0.0L83.33333333333333 0.0C105.55555555555556 0.0 105.55555555555556 50.0 83.33333333333333 50.0L16.666666666666668 50.0C-5.555555555555556 50.0 -5.555555555555556 0.0 16.666666666666668 0.0Z" stroke="#323232" stroke-width="2.0" stroke-dasharray="none" opacity="1.0" fill="#ffffff"/><g id="ProcessOnG1023" transform="matrix(1.0,0.0,0.0,1.0,10.0,16.875)"><text id="ProcessOnText1024" fill="#000000" font-weight="normal" font-style="normal" text-decoration="blink" font-family="微软雅黑" text-anchor="middle" font-size="13" x="40.0" y="13.325">DeclStmt</text></g></g><g id="ProcessOnG1025" transform="matrix(1.0,0.0,0.0,1.0,389.98333740234375,257.25)" opacity="1.0"><path id="ProcessOnPath1026" d="M16.666666666666668 0.0L83.33333333333333 0.0C105.55555555555556 0.0 105.55555555555556 50.0 83.33333333333333 50.0L16.666666666666668 50.0C-5.555555555555556 50.0 -5.555555555555556 0.0 16.666666666666668 0.0Z" stroke="#323232" stroke-width="2.0" stroke-dasharray="none" opacity="1.0" fill="#ffffff"/><g id="ProcessOnG1027" transform="matrix(1.0,0.0,0.0,1.0,10.0,16.875)"><text id="ProcessOnText1028" fill="#000000" font-weight="normal" font-style="normal" text-decoration="blink" font-family="微软雅黑" text-anchor="middle" font-size="13" x="40.0" y="13.325">DeclStmt</text></g></g><g id="ProcessOnG1029" transform="matrix(1.0,0.0,0.0,1.0,532.4833374023438,257.25)" opacity="1.0"><path id="ProcessOnPath1030" d="M16.666666666666668 0.0L83.33333333333333 0.0C105.55555555555556 0.0 105.55555555555556 50.0 83.33333333333333 50.0L16.666666666666668 50.0C-5.555555555555556 50.0 -5.555555555555556 0.0 16.666666666666668 0.0Z" stroke="#323232" stroke-width="2.0" stroke-dasharray="none" opacity="1.0" fill="#ffffff"/><g id="ProcessOnG1031" transform="matrix(1.0,0.0,0.0,1.0,10.0,16.875)"><text id="ProcessOnText1032" fill="#000000" font-weight="normal" font-style="normal" text-decoration="blink" font-family="微软雅黑" text-anchor="middle" font-size="13" x="40.0" y="13.325">ForStmt</text></g></g><g id="ProcessOnG1033" transform="matrix(1.0,0.0,0.0,1.0,641.1083374023438,257.25)" opacity="1.0"><path id="ProcessOnPath1034" d="M16.666666666666668 0.0L83.33333333333333 0.0C105.55555555555556 0.0 105.55555555555556 50.0 83.33333333333333 50.0L16.666666666666668 50.0C-5.555555555555556 50.0 -5.555555555555556 0.0 16.666666666666668 0.0Z" stroke="#323232" stroke-width="2.0" stroke-dasharray="none" opacity="1.0" fill="#ffffff"/><g id="ProcessOnG1035" transform="matrix(1.0,0.0,0.0,1.0,10.0,16.875)"><text id="ProcessOnText1036" fill="#000000" font-weight="normal" font-style="normal" text-decoration="blink" font-family="微软雅黑" text-anchor="middle" font-size="13" x="40.0" y="13.325">ForStmt</text></g></g><g id="ProcessOnG1037" transform="matrix(1.0,0.0,0.0,1.0,826.4833374023438,251.25)" opacity="1.0"><path id="ProcessOnPath1038" d="M16.666666666666668 0.0L83.33333333333333 0.0C105.55555555555556 0.0 105.55555555555556 50.0 83.33333333333333 50.0L16.666666666666668 50.0C-5.555555555555556 50.0 -5.555555555555556 0.0 16.666666666666668 0.0Z" stroke="#323232" stroke-width="2.0" stroke-dasharray="none" opacity="1.0" fill="#ffffff"/><g id="ProcessOnG1039" transform="matrix(1.0,0.0,0.0,1.0,10.0,16.875)"><text id="ProcessOnText1040" fill="#000000" font-weight="normal" font-style="normal" text-decoration="blink" font-family="微软雅黑" text-anchor="middle" font-size="13" x="40.0" y="13.325">ReturnStmt</text></g></g><g id="ProcessOnG1041" transform="matrix(1.0,0.0,0.0,1.0,40.98333740234375,396.4499969482422)" opacity="1.0"><path id="ProcessOnPath1042" d="M22.26666768391927 0.0L150.73333231608072 0.0C180.42222256130643 0.0 180.42222256130643 66.80000305175781 150.73333231608072 66.80000305175781L22.26666768391927 66.80000305175781C-7.422222561306423 66.80000305175781 -7.422222561306423 0.0 22.26666768391927 0.0Z" stroke="#323232" stroke-width="2.0" stroke-dasharray="none" opacity="1.0" fill="#ffffff"/><g id="ProcessOnG1043" transform="matrix(1.0,0.0,0.0,1.0,10.0,25.275001525878906)"><text id="ProcessOnText1044" fill="#000000" font-weight="normal" font-style="normal" text-decoration="blink" font-family="微软雅黑" text-anchor="middle" font-size="13" x="76.5" y="13.325">numbers 'int *' cinit</text></g></g><g id="ProcessOnG1045" transform="matrix(1.0,0.0,0.0,1.0,262.98333740234375,511.4499969482422)" opacity="1.0"><path id="ProcessOnPath1046" d="M19.600001017252605 0.0L121.39999898274739 0.0C147.53333367241754 0.0 147.53333367241754 58.80000305175781 121.39999898274739 58.80000305175781L19.600001017252605 58.80000305175781C-6.533333672417535 58.80000305175781 -6.533333672417535 0.0 19.600001017252605 0.0Z" stroke="#323232" stroke-width="2.0" stroke-dasharray="none" opacity="1.0" fill="#ffffff"/><g id="ProcessOnG1047" transform="matrix(1.0,0.0,0.0,1.0,10.0,21.275001525878906)"><text id="ProcessOnText1048" fill="#000000" font-weight="normal" font-style="normal" text-decoration="blink" font-family="微软雅黑" text-anchor="middle" font-size="13" x="60.5" y="13.325">lastPrime 'int'</text></g></g><g id="ProcessOnG1049" transform="matrix(1.0,0.0,0.0,1.0,433.60833740234375,347.7083282470703)" opacity="1.0"><path id="ProcessOnPath1050" d="M17.694442749023438 0.0L62.08055114746094 0.0C85.67314147949219 0.0 85.67314147949219 53.08332824707031 62.08055114746094 53.08332824707031L17.694442749023438 53.08332824707031C-5.8981475830078125 53.08332824707031 -5.8981475830078125 0.0 17.694442749023438 0.0Z" stroke="#323232" stroke-width="2.0" stroke-dasharray="none" opacity="1.0" fill="#ffffff"/><g id="ProcessOnG1051" transform="matrix(1.0,0.0,0.0,1.0,10.0,18.416664123535156)"><text id="ProcessOnText1052" fill="#000000" font-weight="normal" font-style="normal" text-decoration="blink" font-family="微软雅黑" text-anchor="middle" font-size="13" x="29.887496948242188" y="13.325">x 'int'</text></g></g><g id="ProcessOnG1053" transform="matrix(1.0,0.0,0.0,1.0,352.48333740234375,346.06666564941406)" opacity="1.0"><path id="ProcessOnPath1054" d="M16.794443766276043 0.0L50.10555013020833 0.0C72.49814181857639 0.0 72.49814181857639 50.383331298828125 50.10555013020833 50.383331298828125L16.794443766276043 50.383331298828125C-5.598147922092014 50.383331298828125 -5.598147922092014 0.0 16.794443766276043 0.0Z" stroke="#323232" stroke-width="2.0" stroke-dasharray="none" opacity="1.0" fill="#ffffff"/><g id="ProcessOnG1055" transform="matrix(1.0,0.0,0.0,1.0,10.0,17.066665649414062)"><text id="ProcessOnText1056" fill="#000000" font-weight="normal" font-style="normal" text-decoration="blink" font-family="微软雅黑" text-anchor="middle" font-size="13" x="23.449996948242188" y="13.325">n 'int'</text></g></g><g id="ProcessOnG1057" transform="matrix(1.0,0.0,0.0,1.0,492.98333740234375,412.3500061035156)" opacity="1.0"><path id="ProcessOnPath1058" d="M0.0 28.04999542236328C0.0 -9.349998474121094 50.44117647058823 -9.349998474121094 50.44117647058823 28.04999542236328C50.44117647058823 65.44998931884766 0.0 65.44998931884766 0.0 28.04999542236328Z" stroke="#323232" stroke-width="2.0" stroke-dasharray="none" opacity="1.0" fill="#ffffff"/></g><g id="ProcessOnG1059" transform="matrix(1.0,0.0,0.0,1.0,504.5127491670496,412.3500061035156)" opacity="1.0"><path id="ProcessOnPath1060" d="M0.0 28.04999542236328C0.0 -9.349998474121094 50.44117647058823 -9.349998474121094 50.44117647058823 28.04999542236328C50.44117647058823 65.44998931884766 0.0 65.44998931884766 0.0 28.04999542236328Z" stroke="#323232" stroke-width="2.0" stroke-dasharray="none" opacity="1.0" fill="#ffffff"/></g><g id="ProcessOnG1061" transform="matrix(1.0,0.0,0.0,1.0,516.0421609317555,412.3500061035156)" opacity="1.0"><path id="ProcessOnPath1062" d="M0.0 28.04999542236328C0.0 -9.349998474121094 50.44117647058823 -9.349998474121094 50.44117647058823 28.04999542236328C50.44117647058823 65.44998931884766 0.0 65.44998931884766 0.0 28.04999542236328Z" stroke="#323232" stroke-width="2.0" stroke-dasharray="none" opacity="1.0" fill="#ffffff"/></g><g id="ProcessOnG1063" transform="matrix(1.0,0.0,0.0,1.0,528.2921609317555,412.3500061035156)" opacity="1.0"><path id="ProcessOnPath1064" d="M0.0 28.04999542236328C0.0 -9.349998474121094 50.44117647058823 -9.349998474121094 50.44117647058823 28.04999542236328C50.44117647058823 65.44998931884766 0.0 65.44998931884766 0.0 28.04999542236328Z" stroke="#323232" stroke-width="2.0" stroke-dasharray="none" opacity="1.0" fill="#ffffff"/><g id="ProcessOnG1065" transform="matrix(1.0,0.0,0.0,1.0,10.0,19.92499542236328)"><text id="ProcessOnText1066" fill="#000000" font-weight="normal" font-style="normal" text-decoration="blink" font-family="微软雅黑" text-anchor="middle" font-size="13" x="15.220588235294116" y="13.325">...</text></g></g><g id="ProcessOnG1067" transform="matrix(1.0,0.0,0.0,1.0,543.424513872932,412.3500061035156)" opacity="1.0"><path id="ProcessOnPath1068" d="M0.0 28.04999542236328C0.0 -9.349998474121094 50.44117647058823 -9.349998474121094 50.44117647058823 28.04999542236328C50.44117647058823 65.44998931884766 0.0 65.44998931884766 0.0 28.04999542236328Z" stroke="#323232" stroke-width="2.0" stroke-dasharray="none" opacity="1.0" fill="#ffffff"/><g id="ProcessOnG1069" transform="matrix(1.0,0.0,0.0,1.0,10.0,19.92499542236328)"><text id="ProcessOnText1070" fill="#000000" font-weight="normal" font-style="normal" text-decoration="blink" font-family="微软雅黑" text-anchor="middle" font-size="13" x="15.220588235294116" y="13.325">...</text></g></g><g id="ProcessOnG1071"><path id="ProcessOnPath1072" d="M127.48333740234375 311.25L127.48333740234375 353.8499984741211L127.48333740234375 353.8499984741211L127.48333740234375 381.2139289707424" stroke="#323232" stroke-width="2.0" stroke-dasharray="none" fill="none" marker-end="url(#ProcessOnMarker1073)"/></g><g id="ProcessOnG1075"><path id="ProcessOnPath1076" d="M442.98333740234375 103.25L442.98333740234375 126.75L442.98333740234375 126.75L442.98333740234375 135.0139320225002" stroke="#323232" stroke-width="2.0" stroke-dasharray="none" fill="none" marker-end="url(#ProcessOnMarker1077)"/></g><g id="ProcessOnG1079" transform="matrix(1.0,0.0,0.0,1.0,454.48333740234375,697.9500122070312)" opacity="1.0"><path id="ProcessOnPath1080" d="M100.0 0.0Q91.0 0.0 91.0 9.0L91.0 61.0Q91.0 70.0 78.0 70.0Q91.0 70.0 91.0 79.0L91.0 131.0Q91.0 140.0 100.0 140.0" stroke="#323232" stroke-width="2.0" stroke-dasharray="none" opacity="1.0" fill="none"/><path id="ProcessOnPath1081" d="M0.0 0.0L100.0 0.0L100.0 140.0L0.0 140.0Z" stroke="#323232" stroke-width="0.0" stroke-dasharray="none" opacity="1.0" fill="none"/></g><g id="ProcessOnG1082" transform="matrix(1.0,0.0,0.0,1.0,396.48333740234375,748.9500122070312)" opacity="1.0"><path id="ProcessOnPath1083" d="M0.0 0.0L87.0 0.0L87.0 38.0L0.0 38.0Z" stroke="#323232" stroke-width="0.0" stroke-dasharray="none" opacity="1.0" fill="none"/><g id="ProcessOnG1084" transform="matrix(1.0,0.0,0.0,1.0,0.0,2.75)"><text id="ProcessOnText1085" fill="#000000" font-weight="normal" font-style="normal" text-decoration="blink" font-family="微软雅黑" text-anchor="middle" font-size="13" x="43.5" y="13.325">numbers[n]=</text><text id="ProcessOnText1086" fill="#000000" font-weight="normal" font-style="normal" text-decoration="blink" font-family="微软雅黑" text-anchor="middle" font-size="13" x="43.5" y="29.575">0</text></g></g><g id="ProcessOnG1087" transform="matrix(1.0,0.0,0.0,1.0,708.4833374023438,600.9500122070312)" opacity="1.0"><path id="ProcessOnPath1088" d="M0.0 4.0Q0.0 0.0 4.0 0.0L125.0 0.0Q129.0 0.0 129.0 4.0L129.0 32.0Q129.0 36.0 125.0 36.0L4.0 36.0Q0.0 36.0 0.0 32.0Z" stroke="#323232" stroke-width="2.0" stroke-dasharray="none" opacity="1.0" fill="#ffffff"/><g id="ProcessOnG1089" transform="matrix(1.0,0.0,0.0,1.0,10.0,9.875)"><text id="ProcessOnText1090" fill="#000000" font-weight="normal" font-style="normal" text-decoration="blink" font-family="微软雅黑" text-anchor="middle" font-size="13" x="54.5" y="13.325">CompoundStmt</text></g></g><g id="ProcessOnG1091" transform="matrix(1.0,0.0,0.0,1.0,730.7333374023438,693.9500122070312)" opacity="1.0"><path id="ProcessOnPath1092" d="M0.0 4.0Q0.0 0.0 4.0 0.0L80.5 0.0Q84.5 0.0 84.5 4.0L84.5 42.0Q84.5 46.0 80.5 46.0L4.0 46.0Q0.0 46.0 0.0 42.0Z" stroke="#323232" stroke-width="2.0" stroke-dasharray="none" opacity="1.0" fill="#ffffff"/><g id="ProcessOnG1093" transform="matrix(1.0,0.0,0.0,1.0,10.0,14.875)"><text id="ProcessOnText1094" fill="#000000" font-weight="normal" font-style="normal" text-decoration="blink" font-family="微软雅黑" text-anchor="middle" font-size="13" x="32.25" y="13.325">'int'      '='</text></g></g><g id="ProcessOnG1095"><path id="ProcessOnPath1096" d="M772.9833374023438 636.9500122070312L772.9833374023438 665.4500122070312L772.9833374023438 665.4500122070312L772.9833374023438 678.7139442295314" stroke="#323232" stroke-width="2.0" stroke-dasharray="none" fill="none" marker-end="url(#ProcessOnMarker1097)"/></g><g id="ProcessOnG1099" transform="matrix(1.0,0.0,0.0,1.0,636.2333374023438,800.5499877929688)" opacity="1.0"><path id="ProcessOnPath1100" d="M0.0 4.0Q0.0 0.0 4.0 0.0L105.75 0.0Q109.75 0.0 109.75 4.0L109.75 37.4000244140625Q109.75 41.4000244140625 105.75 41.4000244140625L4.0 41.4000244140625Q0.0 41.4000244140625 0.0 37.4000244140625Z" stroke="#323232" stroke-width="2.0" stroke-dasharray="none" opacity="1.0" fill="#ffffff"/><g id="ProcessOnG1101" transform="matrix(1.0,0.0,0.0,1.0,10.0,12.57501220703125)"><text id="ProcessOnText1102" fill="#000000" font-weight="normal" font-style="normal" text-decoration="blink" font-family="微软雅黑" text-anchor="middle" font-size="13" x="44.875" y="13.325">'int' lvalue</text></g></g><g id="ProcessOnG1103" transform="matrix(1.0,0.0,0.0,1.0,840.4833374023438,800.9500122070312)" opacity="1.0"><path id="ProcessOnPath1104" d="M0.0 4.0Q0.0 0.0 4.0 0.0L78.0 0.0Q82.0 0.0 82.0 4.0L82.0 36.5999755859375Q82.0 40.5999755859375 78.0 40.5999755859375L4.0 40.5999755859375Q0.0 40.5999755859375 0.0 36.5999755859375Z" stroke="#323232" stroke-width="2.0" stroke-dasharray="none" opacity="1.0" fill="#ffffff"/><g id="ProcessOnG1105" transform="matrix(1.0,0.0,0.0,1.0,10.0,12.17498779296875)"><text id="ProcessOnText1106" fill="#000000" font-weight="normal" font-style="normal" text-decoration="blink" font-family="微软雅黑" text-anchor="middle" font-size="13" x="31.0" y="13.325">'int' 0</text></g></g><g id="ProcessOnG1107" transform="matrix(1.0,0.0,0.0,1.0,598.0421609317555,865.8499755859375)" opacity="1.0"><path id="ProcessOnPath1108" d="M0.0 30.0C0.0 -10.0 61.44117647058829 -10.0 61.44117647058829 30.0C61.44117647058829 70.0 0.0 70.0 0.0 30.0Z" stroke="#323232" stroke-width="2.0" stroke-dasharray="none" opacity="1.0" fill="#ffffff"/><g id="ProcessOnG1109" transform="matrix(1.0,0.0,0.0,1.0,10.0,21.875)"><text id="ProcessOnText1110" fill="#000000" font-weight="normal" font-style="normal" text-decoration="blink" font-family="微软雅黑" text-anchor="middle" font-size="13" x="20.720588235294144" y="13.325">...</text></g></g><g id="ProcessOnG1111" transform="matrix(1.0,0.0,0.0,1.0,688.341257153955,870.566650390625)" opacity="1.0"><path id="ProcessOnPath1112" d="M0.0 29.64166259765625C0.0 -9.88055419921875 57.642080248388766 -9.88055419921875 57.642080248388766 29.64166259765625C57.642080248388766 69.16387939453125 0.0 69.16387939453125 0.0 29.64166259765625Z" stroke="#323232" stroke-width="2.0" stroke-dasharray="none" opacity="1.0" fill="#ffffff"/><g id="ProcessOnG1113" transform="matrix(1.0,0.0,0.0,1.0,10.0,21.51666259765625)"><text id="ProcessOnText1114" fill="#000000" font-weight="normal" font-style="normal" text-decoration="blink" font-family="微软雅黑" text-anchor="middle" font-size="13" x="18.821040124194383" y="13.325">...</text></g></g><g id="ProcessOnG1115" transform="matrix(1.0,0.0,0.0,1.0,789.7166748046875,431.1499938964844)" opacity="1.0"><path id="ProcessOnPath1116" d="M0.0 4.0Q0.0 0.0 4.0 0.0L128.76666259765625 0.0Q132.76666259765625 0.0 132.76666259765625 4.0L132.76666259765625 33.30000305175781Q132.76666259765625 37.30000305175781 128.76666259765625 37.30000305175781L4.0 37.30000305175781Q0.0 37.30000305175781 0.0 33.30000305175781Z" stroke="#323232" stroke-width="2.0" stroke-dasharray="none" opacity="1.0" fill="#ffffff"/><g id="ProcessOnG1117" transform="matrix(1.0,0.0,0.0,1.0,10.0,10.525001525878906)"><text id="ProcessOnText1118" fill="#000000" font-weight="normal" font-style="normal" text-decoration="blink" font-family="微软雅黑" text-anchor="middle" font-size="13" x="56.383331298828125" y="13.325">CompoundStmt</text></g></g><g id="ProcessOnG1119" transform="matrix(1.0,0.0,0.0,1.0,855.0416717529297,352.04998779296875)" opacity="1.0"><path id="ProcessOnPath1120" d="M0.0 22.20000457763672C0.0 -7.400001525878906 42.883331298828125 -7.400001525878906 42.883331298828125 22.20000457763672C42.883331298828125 51.800010681152344 0.0 51.800010681152344 0.0 22.20000457763672Z" stroke="#323232" stroke-width="2.0" stroke-dasharray="none" opacity="1.0" fill="#ffffff"/><g id="ProcessOnG1121" transform="matrix(1.0,0.0,0.0,1.0,10.0,14.075004577636719)"><text id="ProcessOnText1122" fill="#000000" font-weight="normal" font-style="normal" text-decoration="blink" font-family="微软雅黑" text-anchor="middle" font-size="13" x="11.441665649414062" y="13.325">...</text></g></g><g id="ProcessOnG1123" transform="matrix(1.0,0.0,0.0,1.0,833.2166748046875,520.0499877929688)" opacity="1.0"><path id="ProcessOnPath1124" d="M0.0 23.600006103515625C0.0 -7.866668701171875 45.76666259765625 -7.866668701171875 45.76666259765625 23.600006103515625C45.76666259765625 55.066680908203125 0.0 55.066680908203125 0.0 23.600006103515625Z" stroke="#323232" stroke-width="2.0" stroke-dasharray="none" opacity="1.0" fill="#ffffff"/><g id="ProcessOnG1125" transform="matrix(1.0,0.0,0.0,1.0,10.0,15.475006103515625)"><text id="ProcessOnText1126" fill="#000000" font-weight="normal" font-style="normal" text-decoration="blink" font-family="微软雅黑" text-anchor="middle" font-size="13" x="12.883331298828125" y="13.325">...</text></g></g><g id="ProcessOnG1127"><path id="ProcessOnPath1128" d="M856.1000061035156 468.4499969482422L856.1000061035156 494.24999237060547L856.1000061035156 494.24999237060547L856.1000061035156 504.813919815469" stroke="#323232" stroke-width="2.0" stroke-dasharray="none" fill="none" marker-end="url(#ProcessOnMarker1129)"/></g><g id="ProcessOnG1131"><path id="ProcessOnPath1132" d="M876.4833374023438 301.25L876.4833374023438 326.6499938964844L876.4833374023438 326.6499938964844L876.4833374023438 336.813919815469" stroke="#323232" stroke-width="2.0" stroke-dasharray="none" fill="none" marker-end="url(#ProcessOnMarker1133)"/></g><g id="ProcessOnG1135" transform="matrix(1.0,0.0,0.0,1.0,99.48333740234375,540.0500030517578)" opacity="1.0"><path id="ProcessOnPath1136" d="M0.0 28.5C0.0 -9.5 56.0 -9.5 56.0 28.5C56.0 66.5 0.0 66.5 0.0 28.5Z" stroke="#323232" stroke-width="2.0" stroke-dasharray="none" opacity="1.0" fill="#ffffff"/><g id="ProcessOnG1137" transform="matrix(1.0,0.0,0.0,1.0,10.0,20.375)"><text id="ProcessOnText1138" fill="#000000" font-weight="normal" font-style="normal" text-decoration="blink" font-family="微软雅黑" text-anchor="middle" font-size="13" x="18.0" y="13.325">...</text></g></g><g id="ProcessOnG1139"><path id="ProcessOnPath1140" d="M127.48333740234375 463.25L127.48333740234375 501.6500015258789L127.48333740234375 501.6500015258789L127.48333740234375 524.813935074258" stroke="#323232" stroke-width="2.0" stroke-dasharray="none" fill="none" marker-end="url(#ProcessOnMarker1141)"/></g><g id="ProcessOnG1143"><path id="ProcessOnPath1144" d="M442.98333740234375 204.25L442.98333740234375 230.75L439.98333740234375 230.75L439.98333740234375 242.0139320225002" stroke="#323232" stroke-width="2.0" stroke-dasharray="none" fill="none" marker-end="url(#ProcessOnMarker1145)"/></g><g id="ProcessOnG1147"><path id="ProcessOnPath1148" d="M482.3833312988281 203.86666870117188L676.3473993489148 253.4747549486386" stroke="#323232" stroke-width="2.0" stroke-dasharray="none" fill="none" marker-end="url(#ProcessOnMarker1149)"/></g><g id="ProcessOnG1151"><path id="ProcessOnPath1152" d="M462.3833312988281 203.86666870117188L522.3266169446819 270.8931167585509" stroke="#323232" stroke-width="2.0" stroke-dasharray="none" fill="none" marker-end="url(#ProcessOnMarker1153)"/></g><g id="ProcessOnG1155"><path id="ProcessOnPath1156" d="M523.4684190330942 196.4252100830656L834.3630382342574 249.3115632885903" stroke="#323232" stroke-width="2.0" stroke-dasharray="none" fill="none" marker-end="url(#ProcessOnMarker1157)"/></g><g id="ProcessOnG1159"><path id="ProcessOnPath1160" d="M374.73195426981874 203.8818899088049L314.73849822386154 248.19744231425562" stroke="#323232" stroke-width="2.0" stroke-dasharray="none" fill="none" marker-end="url(#ProcessOnMarker1161)"/></g><g id="ProcessOnG1163"><path id="ProcessOnPath1164" d="M363.21355351442304 196.6527306527392L188.61352668179484 267.8011436116716" stroke="#323232" stroke-width="2.0" stroke-dasharray="none" fill="none" marker-end="url(#ProcessOnMarker1165)"/></g><g id="ProcessOnG1167"><path id="ProcessOnPath1168" d="M339.447509071304 94.29551826242572L197.91586394918 170.05938125169092" stroke="#323232" stroke-width="2.0" stroke-dasharray="none" fill="none" marker-end="url(#ProcessOnMarker1169)"/></g><g id="ProcessOnG1171"><path id="ProcessOnPath1172" d="M654.3833312988281 841.566650390625L639.8210009239456 855.3689052447891" stroke="#323232" stroke-width="2.0" stroke-dasharray="none" fill="none" marker-end="url(#ProcessOnMarker1173)"/></g><g id="ProcessOnG1175"><path id="ProcessOnPath1176" d="M709.3833312988281 841.566650390625L713.2149172204083 855.8508100104516" stroke="#323232" stroke-width="2.0" stroke-dasharray="none" fill="none" marker-end="url(#ProcessOnMarker1177)"/></g><g id="ProcessOnG1179"><path id="ProcessOnPath1180" d="M748.3833312988281 739.566650390625L672.5701871383513 784.7645909572348" stroke="#323232" stroke-width="2.0" stroke-dasharray="none" fill="none" marker-end="url(#ProcessOnMarker1181)"/></g><g id="ProcessOnG1183"><path id="ProcessOnPath1184" d="M791.3833312988281 739.566650390625L868.891730102867 792.3715978412665" stroke="#323232" stroke-width="2.0" stroke-dasharray="none" fill="none" marker-end="url(#ProcessOnMarker1185)"/></g><g id="ProcessOnG1187"><path id="ProcessOnPath1188" d="M290.3833312988281 306.76666259765625L311.6845771005791 496.6255925697842" stroke="#323232" stroke-width="2.0" stroke-dasharray="none" fill="none" marker-end="url(#ProcessOnMarker1189)"/></g><g id="ProcessOnG1191"><path id="ProcessOnPath1192" d="M418.3833312988281 307.06666564941406L407.9847393344439 332.0090523231712" stroke="#323232" stroke-width="2.0" stroke-dasharray="none" fill="none" marker-end="url(#ProcessOnMarker1193)"/></g><g id="ProcessOnG1195"><path id="ProcessOnPath1196" d="M468.3833312988281 307.06666564941406L483.1794486073075 334.6412479061256" stroke="#323232" stroke-width="2.0" stroke-dasharray="none" fill="none" marker-end="url(#ProcessOnMarker1197)"/></g><g id="ProcessOnG1199"><path id="ProcessOnPath1200" d="M582.4833374023438 307.25L527.0687514721114 402.10713169036603" stroke="#323232" stroke-width="2.0" stroke-dasharray="none" fill="none" marker-end="url(#ProcessOnMarker1201)"/></g><g id="ProcessOnG1203"><path id="ProcessOnPath1204" d="M582.4833374023438 307.25L539.3575030046287 400.045375078372" stroke="#323232" stroke-width="2.0" stroke-dasharray="none" fill="none" marker-end="url(#ProcessOnMarker1205)"/></g><g id="ProcessOnG1207"><path id="ProcessOnPath1208" d="M582.4833374023438 307.25L557.5615370676514 397.66174262715685" stroke="#323232" stroke-width="2.0" stroke-dasharray="none" fill="none" marker-end="url(#ProcessOnMarker1209)"/></g><g id="ProcessOnG1211"><path id="ProcessOnPath1212" d="M582.4833374023438 307.25L570.6340280147895 397.24431376078616" stroke="#323232" stroke-width="2.0" stroke-dasharray="none" fill="none" marker-end="url(#ProcessOnMarker1213)"/></g><g id="ProcessOnG1215"><path id="ProcessOnPath1216" d="M582.4833374023438 307.25L582.7648029014417 402.6498160286929" stroke="#323232" stroke-width="2.0" stroke-dasharray="none" fill="none" marker-end="url(#ProcessOnMarker1217)"/></g><g id="ProcessOnG1219"><path id="ProcessOnPath1220" d="M597.3833312988281 307.06666564941406L736.6067120121439 587.4205966748583" stroke="#323232" stroke-width="2.0" stroke-dasharray="none" fill="none" marker-end="url(#ProcessOnMarker1221)"/></g><g id="ProcessOnG1223" transform="matrix(1.0,0.0,0.0,1.0,652.3833312988281,372.3500061035156)" opacity="1.0"><path id="ProcessOnPath1224" d="M0.0 20.0C0.0 -6.666666666666667 40.0 -6.666666666666667 40.0 20.0C40.0 46.666666666666664 0.0 46.666666666666664 0.0 20.0Z" stroke="#323232" stroke-width="2.0" stroke-dasharray="none" opacity="1.0" fill="#ffffff"/></g><g id="ProcessOnG1225" transform="matrix(1.0,0.0,0.0,1.0,664.3833312988281,371.5500030517578)" opacity="1.0"><path id="ProcessOnPath1226" d="M0.0 20.0C0.0 -6.666666666666667 40.0 -6.666666666666667 40.0 20.0C40.0 46.666666666666664 0.0 46.666666666666664 0.0 20.0Z" stroke="#323232" stroke-width="2.0" stroke-dasharray="none" opacity="1.0" fill="#ffffff"/></g><g id="ProcessOnG1227" transform="matrix(1.0,0.0,0.0,1.0,675.3833312988281,371.5500030517578)" opacity="1.0"><path id="ProcessOnPath1228" d="M0.0 20.0C0.0 -6.666666666666667 40.0 -6.666666666666667 40.0 20.0C40.0 46.666666666666664 0.0 46.666666666666664 0.0 20.0Z" stroke="#323232" stroke-width="2.0" stroke-dasharray="none" opacity="1.0" fill="#ffffff"/></g><g id="ProcessOnG1229" transform="matrix(1.0,0.0,0.0,1.0,688.341257153955,371.5500030517578)" opacity="1.0"><path id="ProcessOnPath1230" d="M0.0 20.0C0.0 -6.666666666666667 40.0 -6.666666666666667 40.0 20.0C40.0 46.666666666666664 0.0 46.666666666666664 0.0 20.0Z" stroke="#323232" stroke-width="2.0" stroke-dasharray="none" opacity="1.0" fill="#ffffff"/></g><g id="ProcessOnG1231" transform="matrix(1.0,0.0,0.0,1.0,701.1083374023438,371.5500030517578)" opacity="1.0"><path id="ProcessOnPath1232" d="M0.0 20.0C0.0 -6.666666666666667 40.0 -6.666666666666667 40.0 20.0C40.0 46.666666666666664 0.0 46.666666666666664 0.0 20.0Z" stroke="#323232" stroke-width="2.0" stroke-dasharray="none" opacity="1.0" fill="#ffffff"/></g><g id="ProcessOnG1233"><path id="ProcessOnPath1234" d="M680.3833312988281 307.06666564941406L672.9504094707638 361.33384698094665" stroke="#323232" stroke-width="2.0" stroke-dasharray="none" fill="none" marker-end="url(#ProcessOnMarker1235)"/></g><g id="ProcessOnG1237"><path id="ProcessOnPath1238" d="M681.3833312988281 307.06666564941406L680.2307106557193 363.3693232731173" stroke="#323232" stroke-width="2.0" stroke-dasharray="none" fill="none" marker-end="url(#ProcessOnMarker1239)"/></g><g id="ProcessOnG1241"><path id="ProcessOnPath1242" d="M681.3833312988281 307.06666564941406L696.2472119099558 359.0557118096165" stroke="#323232" stroke-width="2.0" stroke-dasharray="none" fill="none" marker-end="url(#ProcessOnMarker1243)"/></g><g id="ProcessOnG1245"><path id="ProcessOnPath1246" d="M683.3833312988281 307.06666564941406L702.841771524934 357.3410824301488" stroke="#323232" stroke-width="2.0" stroke-dasharray="none" fill="none" marker-end="url(#ProcessOnMarker1247)"/></g><g id="ProcessOnG1249"><path id="ProcessOnPath1250" d="M683.3833312988281 307.06666564941406L713.4146340675246 358.39915910884724" stroke="#323232" stroke-width="2.0" stroke-dasharray="none" fill="none" marker-end="url(#ProcessOnMarker1251)"/></g><g id="ProcessOnG1253"><path id="ProcessOnPath1254" d="M691.1083374023438 307.25L834.5082530876002 422.5209710758267" stroke="#323232" stroke-width="2.0" stroke-dasharray="none" fill="none" marker-end="url(#ProcessOnMarker1255)"/></g></g></g></svg>